<svg width="111" height="34" viewBox="0 0 111 34" fill="none" xmlns="http://www.w3.org/2000/svg">
<path d="M108.93 24.119C108.325 23.3859 107.184 22.4975 105.348 22.3263C103.958 22.1925 103.114 22.4494 101.756 23.3805C101.028 23.8675 100.333 24.6755 99.3303 25.628C99.0013 25.9545 98.4228 26.3291 97.8125 26.3291C97.3402 26.3291 96.7564 25.7618 96.4327 24.7665C95.3767 21.5611 95.5093 18.5055 95.9339 15.3482C99.1658 15.284 101.336 15.0111 103.82 14.6312C105.863 14.3208 108.389 13.5502 108.315 11.6559C108.299 11.0351 108.06 10.4304 107.015 10.2431C106.304 10.1147 105.73 10.4786 104.934 10.8264C104.324 11.0886 103.512 11.4472 102.716 11.5863C100.153 12.0465 98.4918 12.1375 96.2098 12.2124C96.5389 9.16217 96.7618 7.94208 97.3402 4.62429C97.6109 3.06172 97.4198 2.10384 96.0188 2.14665C95.1432 2.1734 94.448 2.99215 94.2091 4.35137C93.6732 7.35344 93.3441 9.48324 93.0894 12.2391C90.8287 12.3783 88.3238 12.3729 86.6999 12.389C84.6674 12.405 84.3596 15.1609 86.3178 15.268C88.0532 15.3643 91.1418 15.3803 92.7975 15.3643C92.5375 18.0774 92.3836 21.2025 93.1584 24.8682C92.7869 25.8046 90.7597 27.2869 89.8628 26.3986C88.4989 25.0608 93.2221 20.646 89.8628 17.8098C89.4276 17.4406 88.6741 17.1516 87.7719 17.1516C87.3527 17.1516 86.891 17.2105 86.424 17.3603C85.0707 17.7831 83.9032 18.9175 82.7622 20.4855C81.7008 21.9357 81.1171 23.2146 80.0875 25.8635C80.268 24.2795 80.1937 20.9724 79.801 19.747C79.318 18.2754 77.4182 18.3021 77.0839 19.6828C76.7177 21.1918 77.2908 23.4501 77.0096 24.5845C76.8079 25.414 75.8049 26.4521 74.6215 25.9491C72.5571 25.0715 75.6298 20.3838 73.0612 18.7677C71.5382 17.8152 69.824 18.3717 68.2054 19.2226C66.3427 20.2018 64.2784 21.9357 63.7264 25.8207C63.355 26.5163 62.4475 27.4154 61.1261 27.6401C61.6355 27.0568 61.7204 26.0187 61.6249 25.4782C61.2375 23.2735 58.9343 23.1932 58.393 20.753C57.995 18.955 59.3005 16.3329 57.1406 16.076C55.7661 15.9155 54.6835 17.9918 53.5054 19.2333C52.4334 20.3517 50.7511 20.7316 50.7724 22.4494C50.783 23.3377 51.6268 23.9798 52.4175 23.9584C54.7313 23.8942 54.4447 21.0795 55.9519 20.9029C55.7343 22.9096 56.4083 23.5892 57.252 24.531C58.3559 25.7618 58.0587 27.9986 56.594 28.2823C55.8298 28.4267 54.9064 28.3732 54.0255 27.8435C53.3621 27.4475 52.7094 26.7625 52.1097 25.6548C51.839 25.1411 51.4516 24.836 50.6981 24.8521C50.1461 24.8628 49.8755 25.1304 49.6261 25.3765C49.2864 25.6976 48.899 25.8849 48.2357 25.8367C47.5564 25.7832 47.1106 25.4354 47.0841 24.6113C47.0257 22.626 48.4957 19.8861 46.1448 19.1744C43.884 18.4894 40.9759 19.5008 39.0601 21.5343C37.8554 22.8133 37.0275 24.0387 36.8524 26.4254C36.4756 26.8588 34.9048 27.5277 32.8404 27.8595C31.1581 28.1324 29.184 27.9879 28.3826 27.1692C31.5455 27.1264 34.5015 24.9538 35.0375 22.6099C35.5788 20.25 33.992 18.8266 32.9625 18.4092C29.9004 17.1784 26.7057 19.2333 25.2197 21.454C24.3017 22.824 24.1 23.5731 24.0681 25.2106C23.6648 25.9491 20.953 27.1264 19.95 24.8521C22.3487 21.7323 23.9726 19.0567 25.2993 14.4599C26.2652 11.1261 26.5942 7.05377 25.2463 3.8323C24.0045 0.873046 20.417 -1.26746 17.1798 3.76808C15.4179 6.50794 15.0146 10.4679 14.9987 13.9087C14.9828 16.3222 15.2375 19.7095 16.4952 24.1992C15.6302 25.0715 13.2262 27.41 9.87756 27.7257C10.8169 27.2495 11.4378 26.7518 12.1967 25.7886C13.6401 23.9584 14.1549 22.0962 13.8683 19.9824C13.5393 17.5262 11.4855 16.4934 9.63344 16.6004C7.25066 16.7396 5.66921 18.2486 4.9687 19.9557C5.10137 19.1958 5.13852 18.8212 5.01646 18.2379C4.86787 17.5209 4.26288 16.9269 3.37133 16.8894C2.55938 16.8573 1.83764 17.2158 1.71558 18.4199C1.58291 19.7042 1.75804 20.5015 1.60945 21.8554C1.30695 24.622 0.357023 26.115 0.0439173 30.2462C-0.0622202 31.6375 -0.0940616 33.4944 1.39186 33.6335C2.44793 33.7299 3.12191 33.3285 3.34479 31.8837C3.49339 30.9151 3.68443 29.39 3.8118 28.4428C4.02938 26.8053 4.46985 24.5578 6.47585 21.9035C7.35149 20.7423 9.0603 19.2975 10.2278 20.0467C10.992 20.5443 10.8753 21.7698 10.2172 23.2093C9.56445 24.622 8.54553 25.8688 6.8951 26.6073C5.82841 27.0782 4.54415 27.5866 4.52823 28.9458C4.51231 30.6368 6.35379 30.8455 7.70705 30.8883C11.0026 30.99 14.9244 29.9572 17.6681 27.2923C19.1221 29.8181 23.495 29.3632 24.8483 27.7578C27.0347 31.8141 34.3476 31.4502 37.4999 28.7853C39.1344 31.7178 44.2396 29.1973 44.9772 26.7893C45.7308 29.3311 49.3077 28.7478 50.1621 27.6669C50.7458 29.4435 53.1445 30.7278 55.5273 30.9954C59.2209 31.4074 62.7075 30.594 64.4163 28.4053C66.1464 30.9686 70.8907 28.8549 71.6337 26.5538C71.6549 29.3418 75.7094 29.8662 77.3386 28.2769C76.5956 30.4442 77.6252 31.6161 79.2756 31.5786C80.4856 31.5519 81.0003 30.2569 81.6478 29.1117C83.1762 26.3558 85.2458 20.844 87.22 20.4266C87.7719 20.3142 88.0638 20.7637 87.7825 21.2935C87.6339 21.5664 87.5172 21.7377 87.3845 21.9678C85.5218 25.1732 85.6492 28.0094 87.6498 29.1278C89.5656 30.1927 92.6861 29.7485 94.1189 28.1378C94.6125 29.3044 95.7959 30.5244 97.3933 30.4174C98.6563 30.3265 99.6222 29.6736 100.636 28.491C102.238 26.6287 103.708 25.2267 105.295 25.4568C105.614 25.505 106.171 25.6762 106.33 26.3986C105.921 26.2541 105.709 26.2381 105.407 26.4093C104.913 26.6876 104.627 27.2655 104.616 27.9933C104.589 29.7111 105.985 30.9633 108.161 30.8616C109.397 30.7974 110.156 29.8716 110.316 28.7532C110.687 26.206 109.419 24.713 108.93 24.119ZM18.2837 12.1589C18.4004 10.7729 18.6339 9.22638 18.947 7.97418C19.4406 5.97281 20.3003 4.47445 21.4466 4.58148C22.63 4.69385 22.837 6.68988 22.768 8.99628C22.7255 10.409 22.4018 12.3408 22.0409 13.9034C21.351 16.9001 20.348 19.3724 18.9735 21.4273C18.2837 19.4259 18.0661 14.8185 18.2837 12.1589ZM32.2089 21.0366C33.0421 22.2888 29.6191 24.836 27.0347 24.7397C27.0984 22.0159 31.4925 19.961 32.2089 21.0366ZM42.7643 25.4943C41.7507 26.6822 40.4717 27.3244 39.8667 26.6876C39.3413 26.1364 39.8083 24.5417 41.0077 23.2628C41.8939 22.3156 42.9288 21.6574 44.2024 21.7109C44.2608 23.2146 43.6293 24.4668 42.7643 25.4943ZM69.495 24.9591C68.4867 26.1471 67.2024 26.7893 66.5975 26.1525C66.0774 25.6013 66.5391 24.0066 67.7384 22.7276C68.6247 21.7805 69.6648 21.1223 70.9332 21.1758C70.9916 22.6795 70.36 23.9317 69.495 24.9591Z" fill="white"/>
</svg>
